<?xml version="1.0" encoding="utf-8" ?>
<svg xmlns="http://www.w3.org/2000/svg" xmlns:ev="http://www.w3.org/2001/xml-events" xmlns:xlink="http://www.w3.org/1999/xlink" baseProfile="full" height="100%" version="1.1" viewBox="-127.0,-102.0,1281.0,251.0" width="100%">
  <defs/>
  <g id="symbol" transform="translate(0,0)">
    <rect fill="none" height="100" stroke="none" width="250" x="-125.0" y="-50.0"/>
    <rect fill="none" height="100" stroke="black" stroke-width="2" width="250" x="-125.0" y="-50.0"/>
  </g>
  <g id="text">
    <text fill="black" font-family="sans-serif" font-size="18" text-anchor="middle" x="0" y="7.2">SSH Client</text>
  </g>
  <g id="symbol" transform="translate(300.0,0)">
    <rect fill="none" height="100" stroke="none" width="250" x="-125.0" y="-50.0"/>
    <rect fill="none" height="100" stroke="black" stroke-width="2" width="250" x="-125.0" y="-50.0"/>
  </g>
  <g id="text">
    <text fill="black" font-family="sans-serif" font-size="18" text-anchor="middle" x="300.0" y="-5">Pass Through Proxy</text>
    <text fill="black" font-family="sans-serif" font-size="18" text-anchor="middle" x="300.0" y="19.4">MMM.MMM.MMM.MMM:LPP</text>
  </g>
  <g id="symbol" transform="translate(700.0,0)">
    <rect fill="none" height="100" stroke="none" width="250" x="-125.0" y="-50.0"/>
    <rect fill="none" height="100" stroke="black" stroke-width="2" width="250" x="-125.0" y="-50.0"/>
  </g>
  <g id="text">
    <text fill="black" font-family="sans-serif" font-size="18" text-anchor="middle" x="700.0" y="-5">Remote Proxy</text>
    <text fill="black" font-family="sans-serif" font-size="18" text-anchor="middle" x="700.0" y="19.4">NNN.NNN.NNN.NNN:RPP</text>
  </g>
  <g id="symbol" transform="translate(1000.0,0)">
    <rect fill="none" height="100" stroke="none" width="250" x="-125.0" y="-50.0"/>
    <rect fill="none" height="100" stroke="black" stroke-width="2" width="250" x="-125.0" y="-50.0"/>
  </g>
  <g id="text">
    <text fill="black" font-family="sans-serif" font-size="18" text-anchor="middle" x="1000.0" y="-5">SSH Server</text>
    <text fill="black" font-family="sans-serif" font-size="18" text-anchor="middle" x="1000.0" y="19.4">localhost:22</text>
  </g>
  <g id="symbol" transform="translate(837.5,0)">
    <rect fill="none" height="150" stroke="none" width="625.0" x="-312.5" y="-75.0"/>
    <rect fill="none" height="150" stroke="black" stroke-dasharray="4 4" stroke-width="2" width="625.0" x="-312.5" y="-75.0"/>
  </g>
  <g id="text"/>
  <g id="wire">
    <polyline fill="none" points="125.0,0 175.0,0" stroke="black" stroke-linecap="round" stroke-width="2"/>
  </g>
  <g id="wire">
    <polyline fill="none" points="125.0,-12 175.0,-12" stroke="black" stroke-dasharray="4 8" stroke-linecap="round" stroke-width="2"/>
  </g>
  <g id="wire">
    <polyline fill="none" points="125.0,12 175.0,12" stroke="black" stroke-dasharray="4 8" stroke-linecap="round" stroke-width="2"/>
  </g>
  <g id="wire">
    <polyline fill="none" points="425.0,0 575.0,0" stroke="black" stroke-linecap="round" stroke-width="2"/>
  </g>
  <g id="wire">
    <polyline fill="none" points="425.0,-12 575.0,-12" stroke="black" stroke-dasharray="4 8" stroke-linecap="round" stroke-width="2"/>
  </g>
  <g id="wire">
    <polyline fill="none" points="425.0,12 575.0,12" stroke="black" stroke-dasharray="4 8" stroke-linecap="round" stroke-width="2"/>
  </g>
  <g id="symbol" transform="translate(500.0,12.0)">
    <rect fill="none" height="50" stroke="none" width="50" x="-25.0" y="-25.0"/>
  </g>
  <g id="text">
    <text fill="black" font-family="sans-serif" font-size="18" text-anchor="middle" x="500.0" y="31.4">TLS tunnel</text>
  </g>
  <g id="wire">
    <polyline fill="none" points="825.0,0 875.0,0" stroke="black" stroke-linecap="round" stroke-width="2"/>
  </g>
  <g id="symbol" transform="translate(575.0,0)">
    <rect fill="none" height="50" stroke="none" width="50" x="-25.0" y="-25.0"/>
    <polygon fill="black" points="0,0 -30,6.0 -30,-6.0" stroke="none"/>
  </g>
  <g id="text"/>
  <g id="symbol" transform="translate(875.0,0)">
    <rect fill="none" height="50" stroke="none" width="50" x="-25.0" y="-25.0"/>
    <polygon fill="black" points="0,0 -30,6.0 -30,-6.0" stroke="none"/>
  </g>
  <g id="text"/>
  <g id="wire">
    <polyline fill="none" points="300.0,-50.0 300.0,-100.0" stroke="black" stroke-dasharray="4 4" stroke-linecap="round" stroke-width="2"/>
  </g>
  <g id="wire">
    <polyline fill="none" points="300.0,50.0 300.0,100.0" stroke="black" stroke-dasharray="4 4" stroke-linecap="round" stroke-width="2"/>
  </g>
  <g id="symbol" transform="translate(300.0,100.0)">
    <rect fill="none" height="50" stroke="none" width="50" x="-25.0" y="-25.0"/>
  </g>
  <g id="text">
    <text fill="black" font-family="sans-serif" font-size="18" text-anchor="middle" x="300.0" y="119.4">firewall</text>
  </g>
  <g id="symbol" transform="translate(300.0,120.0)">
    <rect fill="none" height="50" stroke="none" width="50" x="-25.0" y="-25.0"/>
  </g>
  <g id="text">
    <text fill="black" font-family="sans-serif" font-size="18" text-anchor="middle" x="300.0" y="139.4">blocks all ports</text>
  </g>
</svg>
